<?xml version="1.0" encoding="UTF-8" standalone="no" ?>
<!DOCTYPE svg PUBLIC "-//W3C//DTD SVG 1.1//EN" "http://www.w3.org/Graphics/SVG/1.1/DTD/svg11.dtd">
<svg xmlns="http://www.w3.org/2000/svg" xmlns:xlink="http://www.w3.org/1999/xlink" version="1.1" width="1080" height="1080" viewBox="0 0 1080 1080" xml:space="preserve">
<desc>Created with Fabric.js 5.2.4</desc>
<defs>
</defs>
<rect x="0" y="0" width="100%" height="100%" fill="transparent"></rect>
<g transform="matrix(1 0 0 1 540 540)" id="82530992-1852-43a8-a358-d4c77556e761"  >
<rect style="stroke: none; stroke-width: 1; stroke-dasharray: none; stroke-linecap: butt; stroke-dashoffset: 0; stroke-linejoin: miter; stroke-miterlimit: 4; fill: rgb(255,255,255); fill-rule: nonzero; opacity: 1; visibility: hidden;" vector-effect="non-scaling-stroke"  x="-540" y="-540" rx="0" ry="0" width="1080" height="1080" />
</g>
<g transform="matrix(1 0 0 1 540 540)" id="bf43e599-6d66-4fd3-88e6-84996f06d3e4"  >
</g>
<g transform="matrix(47.01 0 0 50.03 1088.27 518.05)" id="8056cf75-dbba-4be3-8145-a0eeb5b59824"  >
<path style="stroke: rgb(0,0,0); stroke-width: 0; stroke-dasharray: none; stroke-linecap: butt; stroke-dashoffset: 0; stroke-linejoin: miter; stroke-miterlimit: 4; fill: rgb(105,72,164); fill-rule: nonzero; opacity: 0.51;" vector-effect="non-scaling-stroke"  transform=" translate(-12, -12)" d="M 4 12 C 4 12.552284749830793 4.447715250169207 13 5 13 L 12.59 13 L 10.29 15.29 C 10.100687349176903 15.477766599905555 9.994201675658328 15.733362463629442 9.994201675658328 16 C 9.994201675658328 16.26663753637056 10.100687349176903 16.522233400094443 10.29 16.71 C 10.477766599905555 16.8993126508231 10.73336246362944 17.005798324341672 11 17.005798324341672 C 11.266637536370558 17.005798324341672 11.522233400094443 16.8993126508231 11.709999999999999 16.71 L 15.709999999999999 12.71 C 15.801040629317031 12.614896290305703 15.872405611870025 12.502751317722426 15.92 12.38 C 16.020018018149635 12.136538644253426 16.020018018149635 11.863461355746578 15.92 11.620000000000001 C 15.872405611870025 11.497248682277576 15.801040629317031 11.385103709694299 15.709999999999999 11.290000000000001 L 11.709999999999999 7.290000000000001 C 11.317877827620135 6.897877827620138 10.682122172379863 6.897877827620138 10.29 7.290000000000001 C 9.897877827620135 7.682122172379865 9.897877827620135 8.317877827620137 10.29 8.71 L 12.59 11 L 5 11 C 4.447715250169207 11 4 11.447715250169207 4 12 Z M 17 2 L 7 2 C 5.343145750507619 2 4 3.3431457505076194 4 5 L 4 8 C 4 8.552284749830793 4.447715250169207 9 5 9 C 5.552284749830793 9 6 8.552284749830793 6 8 L 6 5 C 6 4.447715250169207 6.447715250169207 4 7 4 L 17 4 C 17.552284749830793 4 18 4.447715250169207 18 5 L 18 19 C 18 19.552284749830793 17.552284749830793 20 17 20 L 7 20 C 6.447715250169207 20 6 19.552284749830793 6 19 L 6 16 C 6 15.447715250169207 5.552284749830793 15 5 15 C 4.447715250169207 15 4 15.447715250169207 4 16 L 4 19 C 4 20.65685424949238 5.343145750507619 22 7 22 L 17 22 C 18.65685424949238 22 20 20.65685424949238 20 19 L 20 5 C 20 3.3431457505076194 18.65685424949238 2 17 2 Z" stroke-linecap="round" />
</g>
</svg>